<?xml version="1.0" encoding="utf-8"?>
<!-- Generator: Adobe Illustrator 16.0.0, SVG Export Plug-In . SVG Version: 6.00 Build 0)  -->
<!DOCTYPE svg PUBLIC "-//W3C//DTD SVG 1.1//EN" "http://www.w3.org/Graphics/SVG/1.1/DTD/svg11.dtd">
<svg version="1.1" id="图层_1" xmlns="http://www.w3.org/2000/svg" xmlns:xlink="http://www.w3.org/1999/xlink" x="0px" y="0px"
	 width="200px" height="200px" viewBox="0 0 200 200" enable-background="new 0 0 200 200" xml:space="preserve">
<g>
	<path fill="#F44336" d="M153.819,159.607c-0.229-4.13-2.867-6.537-6.88-7.57c-5.734-1.374-11.24,0-16.858,2.065
		c0.344,1.49,0.688,2.752,0.917,4.015c3.211-0.574,6.077-1.263,8.944-1.377c5.734-0.345,7.34,1.604,6.882,7.225
		c-4.588,1.146-8.946,1.72-12.845,3.326c-4.358,1.604-6.307,6.422-5.275,11.237c0.917,4.129,4.129,6.766,9.061,6.422
		c3.44-0.229,6.881-1.604,10.32-2.522c0.574,3.785,3.555,1.605,5.849,1.949C153.934,175.892,154.048,167.749,153.819,159.607z
		 M146.939,172.336c0,5.047-0.92,6.192-5.62,7.34c-2.867,0.688-5.161-0.573-5.964-3.21c-0.803-2.524,0.574-5.392,3.211-6.08
		c2.523-0.573,5.276-0.802,8.373-1.26V172.336z"/>
	<path fill="#F44336" d="M85.701,151.923c-4.014-0.343-8.257,0.23-12.271,1.033c-4.014,0.802-3.899,1.261-2.293,5.389
		c1.376-0.343,2.867-0.802,4.358-1.03c1.49-0.345,3.096-0.574,4.587-0.574c5.619-0.115,7.339,1.95,6.651,7.911
		c-1.376,0.116-2.867,0-4.243,0.346c-3.326,0.802-6.88,1.376-9.862,2.867c-3.899,2.064-5.276,6.88-4.014,11.238
		c1.146,3.783,4.014,5.733,8.601,5.963c3.555,0.114,6.766-1.032,9.633-3.211c0.229-0.114,0.573-0.114,0.917-0.114
		c0.344,0.917,0.573,1.72,0.917,2.522h4.931c0.115-0.917,0.229-1.72,0.229-2.408c-0.114-7.454,0.115-14.793-0.344-22.133
		C93.27,154.79,90.747,152.268,85.701,151.923z M80.771,179.676c-2.638,0.573-4.702-0.917-5.39-3.326
		c-0.803-2.751,0.458-5.391,3.097-6.078c2.637-0.573,5.389-0.803,8.256-1.146C87.651,177.038,87.192,178.186,80.771,179.676z"/>
	<path fill="#F44336" d="M112.994,176.12c-0.229,0-0.574-0.114-0.803-0.114c-1.722-5.849-3.556-11.582-5.275-17.432
		c-1.95-6.765-1.835-6.765-8.83-6.537c-0.114,0.116-0.229,0.116-0.573,0.346c2.867,9.403,5.849,18.576,8.37,27.866
		c0.92,3.325,2.524,4.816,5.964,4.128c0.345-0.114,0.573,0,0.918,0c2.179,0.344,3.439-0.458,4.128-2.637
		c1.377-3.9,3.097-7.569,4.244-11.469c1.72-5.848,3.21-11.812,4.814-18.118h-7.108C116.893,160.295,114.943,168.208,112.994,176.12z
		"/>
	<path fill="#F44336" d="M56.458,140.8v3.556c0,10.895-0.114,21.673,0,32.567c0.115,6.193-0.458,11.927-6.995,15.023
		c1.261,1.49,2.293,2.751,3.44,4.128c8.372-4.128,10.895-7.913,10.895-16.628v-36.237c0-0.804-0.115-1.606-0.115-2.409H56.458z"/>
</g>
<g>
	<path fill="#F44336" d="M100.551,72.604c-3.587-5.73-6.602-11.8-9.001-18.12c-5.603-14.067,34.216-26.764,18.062-51.142
		c6.974,16.868-25.153,27.299-28.135,41.307C78.795,57.583,100.551,72.604,100.551,72.604z"/>
	<path fill="#F44336" d="M101.326,47.332c-0.656,8.345,7.391,12.815,7.629,18.895c0.18,4.946-4.769,9.119-4.769,9.119
		s9.061-1.787,11.862-9.358c2.801-7.57-6.08-14.126-5.126-20.862c0.952-6.735,19.968-18.418,19.968-18.418
		S102.757,28.556,101.326,47.332z"/>
	<path fill="#1565C0" d="M128.566,73.14c5.841-1.31,10.729,2.385,10.729,6.677c0,9.597-13.351,18.715-13.351,18.715
		s20.622-2.443,20.622-18.238C146.566,69.802,136.435,67.18,128.566,73.14z M118.732,80.889c0,0,6.437-4.589,8.165-6.318
		c-15.795,3.339-51.858,3.814-51.858,0.894c0-2.919,11.623-5.423,11.623-5.423s-25.75-0.358-25.75,7.211
		C60.913,84.824,94.65,85.778,118.732,80.889z M114.796,88.103c-14.96,4.947-42.498,3.397-34.333-3.278
		c-3.994,0-9.895,3.158-9.895,6.258c0,6.14,29.803,10.908,51.858,1.907L114.796,88.103z"/>
	<path fill="#1565C0" d="M84.159,98.592c-5.424,0-8.941,3.516-8.941,6.02c0,7.928,32.367,8.704,45.183,0.656l-8.168-5.423
		C102.639,104.136,78.616,104.672,84.159,98.592z"/>
	<path fill="#1565C0" d="M142.454,111.527c0-3.099-3.518-4.59-4.769-5.245c7.392,17.821-73.971,16.45-73.971,5.9
		c0-2.384,6.021-4.709,11.503-3.636l-4.708-2.801c-11.027-1.729-18.538,3.1-18.538,7.033
		C52.032,131.019,142.454,130.124,142.454,111.527L142.454,111.527z"/>
	<path fill="#1565C0" d="M151.454,118.022c-13.769,13.592-48.578,18.539-83.626,10.136
		C102.876,143.118,151.275,134.713,151.454,118.022z"/>
</g>
</svg>
