<?xml version="1.0" encoding="utf-8"?>
<!-- Generator: Adobe Illustrator 16.0.0, SVG Export Plug-In . SVG Version: 6.00 Build 0)  -->
<!DOCTYPE svg PUBLIC "-//W3C//DTD SVG 1.1//EN" "http://www.w3.org/Graphics/SVG/1.1/DTD/svg11.dtd">
<svg version="1.1" id="图层_1" xmlns="http://www.w3.org/2000/svg" xmlns:xlink="http://www.w3.org/1999/xlink" x="0px" y="0px"
	 width="200px" height="200px" viewBox="0 0 200 200" enable-background="new 0 0 200 200" xml:space="preserve">
<g display="none">
	<path display="inline" fill="#F44336" d="M147.441,159.012c-0.229-4.131-2.865-6.537-6.879-7.57c-5.734-1.374-11.24,0-16.857,2.064
		c0.344,1.49,0.688,2.752,0.916,4.016c3.211-0.574,6.078-1.264,8.943-1.377c5.734-0.346,7.342,1.604,6.883,7.225
		c-4.588,1.146-8.945,1.721-12.846,3.326c-4.357,1.604-6.307,6.422-5.273,11.236c0.916,4.13,4.129,6.767,9.061,6.423
		c3.439-0.229,6.881-1.604,10.32-2.522c0.574,3.785,3.555,1.605,5.848,1.949C147.557,175.297,147.672,167.153,147.441,159.012z
		 M140.563,171.74c0,5.047-0.92,6.191-5.621,7.34c-2.865,0.688-5.16-0.572-5.963-3.21c-0.803-2.524,0.574-5.392,3.211-6.08
		c2.523-0.573,5.275-0.802,8.373-1.26V171.74z"/>
	<path display="inline" fill="#F44336" d="M79.325,151.327c-4.014-0.343-8.258,0.229-12.271,1.033
		c-4.014,0.802-3.898,1.261-2.293,5.39c1.377-0.344,2.867-0.803,4.358-1.031c1.489-0.344,3.096-0.573,4.587-0.573
		c5.619-0.115,7.339,1.95,6.65,7.911c-1.375,0.115-2.866,0-4.242,0.346c-3.326,0.802-6.881,1.376-9.862,2.867
		c-3.899,2.064-5.276,6.88-4.015,11.238c1.146,3.782,4.015,5.732,8.602,5.963c3.555,0.113,6.766-1.032,9.633-3.211
		c0.229-0.114,0.573-0.114,0.918-0.114c0.344,0.917,0.572,1.72,0.916,2.522h4.932c0.115-0.918,0.229-1.721,0.229-2.408
		c-0.113-7.455,0.115-14.793-0.344-22.133C86.893,154.194,84.371,151.672,79.325,151.327z M74.395,179.08
		c-2.639,0.573-4.703-0.917-5.391-3.326c-0.803-2.75,0.458-5.391,3.098-6.078c2.637-0.572,5.389-0.803,8.256-1.146
		C81.274,176.442,80.815,177.59,74.395,179.08z"/>
	<path display="inline" fill="#F44336" d="M106.617,175.524c-0.229,0-0.574-0.114-0.803-0.114
		c-1.723-5.849-3.557-11.582-5.275-17.432c-1.95-6.766-1.834-6.766-8.83-6.537c-0.113,0.115-0.229,0.115-0.572,0.346
		c2.866,9.403,5.848,18.576,8.369,27.866c0.92,3.325,2.525,4.815,5.964,4.128c0.344-0.113,0.572,0,0.918,0
		c2.178,0.344,3.439-0.458,4.127-2.637c1.377-3.9,3.098-7.569,4.244-11.469c1.721-5.849,3.211-11.813,4.814-18.119h-7.107
		C110.516,159.699,108.566,167.612,106.617,175.524z"/>
	<path display="inline" fill="#F44336" d="M50.082,140.204v3.556c0,10.896-0.114,21.674,0,32.567
		c0.115,6.193-0.458,11.927-6.995,15.022c1.262,1.49,2.293,2.752,3.439,4.129c8.373-4.129,10.896-7.913,10.896-16.629v-36.236
		c0-0.805-0.114-1.605-0.114-2.409H50.082z"/>
</g>
<g>
	<path fill="#F44336" d="M97.607,105.433c-5.17-8.258-9.515-17.006-12.973-26.115c-8.075-20.273,49.313-38.573,26.03-73.706
		c10.052,24.311-36.25,39.344-40.547,59.532C66.252,83.784,97.607,105.433,97.607,105.433z"/>
	<path fill="#F44336" d="M98.725,69.011c-0.945,12.026,10.651,18.469,10.995,27.231c0.259,7.128-6.874,13.143-6.874,13.143
		s13.06-2.576,17.096-13.487c4.038-10.91-8.763-20.358-7.388-30.066c1.372-9.706,28.779-26.544,28.779-26.544
		S100.786,41.951,98.725,69.011z"/>
	<path fill="#1565C0" d="M137.983,106.205c8.418-1.887,15.462,3.438,15.462,9.623c0,13.832-19.242,26.972-19.242,26.972
		s29.722-3.521,29.722-26.285C163.925,101.394,149.324,97.616,137.983,106.205z M123.811,117.373c0,0,9.276-6.615,11.766-9.105
		c-22.764,4.813-74.736,5.497-74.736,1.289c0-4.209,16.751-7.816,16.751-7.816s-37.111-0.516-37.111,10.392
		C40.481,123.045,89.103,124.419,123.811,117.373z M118.138,127.77c-21.561,7.129-61.249,4.896-49.481-4.725
		c-5.756,0-14.26,4.552-14.26,9.019c0,8.851,42.953,15.722,74.738,2.75L118.138,127.77z"/>
	<path fill="#1565C0" d="M73.983,142.887c-7.817,0-12.886,5.067-12.886,8.676c0,11.425,46.648,12.546,65.118,0.945l-11.772-7.815
		C100.616,150.875,65.995,151.649,73.983,142.887z"/>
	<path fill="#1565C0" d="M157.998,161.529c0-4.467-5.07-6.614-6.872-7.561c10.652,25.686-106.608,23.71-106.608,8.504
		c0-3.437,8.678-6.787,16.578-5.241l-6.785-4.036c-15.892-2.491-26.716,4.47-26.716,10.136
		C27.682,189.622,157.998,188.33,157.998,161.529L157.998,161.529z"/>
	<path fill="#1565C0" d="M170.969,170.889c-19.843,19.589-70.011,26.719-120.521,14.609
		C100.958,207.057,170.712,194.944,170.969,170.889z"/>
</g>
</svg>
