<svg xmlns="http://www.w3.org/2000/svg" width="210" height="210" viewBox="0 0 210 210">
  <metadata><?xpacket begin="﻿" id="W5M0MpCehiHzreSzNTczkc9d"?>
<x:xmpmeta xmlns:x="adobe:ns:meta/" x:xmptk="Adobe XMP Core 5.6-c138 79.159824, 2016/09/14-01:09:01        ">
   <rdf:RDF xmlns:rdf="http://www.w3.org/1999/02/22-rdf-syntax-ns#">
      <rdf:Description rdf:about=""/>
   </rdf:RDF>
</x:xmpmeta>
                                                                                                    
                                                                                                    
                                                                                                    
                                                                                                    
                                                                                                    
                                                                                                    
                                                                                                    
                                                                                                    
                                                                                                    
                                                                                                    
                                                                                                    
                                                                                                    
                                                                                                    
                                                                                                    
                                                                                                    
                                                                                                    
                                                                                                    
                                                                                                    
                                                                                                    
                                                                                                    
                           
<?xpacket end="w"?></metadata>
<defs>
    <style>
      .cls-1 {
        fill: #024ea3;
      }

      .cls-2 {
        fill: #fcfcfb;
        fill-rule: evenodd;
      }
    </style>
  </defs>
  <circle id="椭圆_1" data-name="椭圆 1" class="cls-1" cx="105" cy="105" r="104"/>
  <path id="形状_1" data-name="形状 1" class="cls-2" d="M193,78l12-1s-10-45.5-50-51c0,0-47-15.5-75,35,0,0-9.5-41.5-52-26l-5,6S59.5,25,76,60c0,0,1,5.5,2,7h3s8.5-31,59-32C140,35,186,39,193,78Z"/>
  <path id="形状_2" data-name="形状 2" class="cls-2" d="M110,116S87,79,63,101c0,0-8,4-9,16,0,0-6,27,39,42,0,0,50.5,19,86,19,0,0-72.5-15-97-33,0,0-31-14.5-14-37,0,0,25-16,39,20l5,1s7.5-31.5,41-35c0,0,22.5-3,33,17,0,0,4,17.5-6,24,0,0-5,10,8,5,0,0,16.5-15.5,0-43,0,0-20.5-22-52-8C136,89,123,92.5,110,116Z"/>
  <path id="形状_3" data-name="形状 3" class="cls-2" d="M152,143s-5-19,12-17l5,4s8.5,1,2-7c0,0-20-13-26,6,0,0-11.5,31,39,42C184,171,157,160.5,152,143Z"/>
  <path id="形状_4" data-name="形状 4" class="cls-2" d="M9,145s47.5,38,156,45c0,0-82.5,4.5-148-30A56.429,56.429,0,0,1,9,145Z"/>
</svg>
