<?xml version="1.0" standalone="no"?><!DOCTYPE svg PUBLIC "-//W3C//DTD SVG 1.1//EN" "http://www.w3.org/Graphics/SVG/1.1/DTD/svg11.dtd"><svg t="1559193472263" class="icon" style="" viewBox="0 0 1104 1024" version="1.1" xmlns="http://www.w3.org/2000/svg" p-id="16809" xmlns:xlink="http://www.w3.org/1999/xlink" width="215.625" height="200"><defs><style type="text/css"></style></defs><path d="M476.051257 668.857986l-97.955331 98.171091V154.053097h645.555836a77.026549 77.026549 0 1 0 0-154.053097H102.353827a77.026549 77.026549 0 0 0 0 154.053097h124.70965v612.112938L129.539668 668.857986a75.516224 75.516224 0 0 0-107.88032 105.938474l227.411715 226.980194a75.516224 75.516224 0 0 0 53.508639 21.576064 74.653182 74.653182 0 0 0 53.292878-21.576064L582.637013 774.79646a75.516224 75.516224 0 0 0-107.88032-106.801517z" p-id="16810"></path><path d="M1023.651762 338.744206H654.269546a77.026549 77.026549 0 0 0 0 153.837336h369.382216a77.026549 77.026549 0 1 0 0-153.837336z" p-id="16811"></path></svg>