<?xml version="1.0" encoding="utf-8"?>
<!-- Generator: Adobe Illustrator 16.0.0, SVG Export Plug-In . SVG Version: 6.00 Build 0)  -->
<!DOCTYPE svg PUBLIC "-//W3C//DTD SVG 1.1//EN" "http://www.w3.org/Graphics/SVG/1.1/DTD/svg11.dtd">
<svg version="1.1" id="图层_1" xmlns="http://www.w3.org/2000/svg" xmlns:xlink="http://www.w3.org/1999/xlink" x="0px" y="0px"
	 width="200px" height="200px" viewBox="0 0 200 200" enable-background="new 0 0 200 200" xml:space="preserve">
<path d="M112.638,66.348l13.385-13.385c4.692-4.692,12.299-4.692,16.992,0c4.692,4.693,4.692,12.3,0,16.993L109.03,103.94
	c-4.692,4.693-12.3,4.693-16.993,0L58.054,69.956c-4.692-4.692-4.692-12.3,0-16.993c4.692-4.692,12.3-4.692,16.992,0l13.562,13.563
	v-38.02c0-0.201,0.005-0.402,0.015-0.601H16.515C9.88,27.905,4.5,22.526,4.5,15.89c0-6.635,5.38-12.015,12.015-12.015h168.213
	c6.636,0,12.016,5.38,12.016,12.015c0,6.636-5.38,12.015-12.016,12.015h-72.105c0.009,0.199,0.015,0.4,0.015,0.601V66.348z
	 M16.515,106.005c6.636,0,12.015,5.38,12.015,12.015v66.084c0,6.636-5.379,12.016-12.015,12.016c-6.635,0-12.015-5.38-12.015-12.016
	V118.02C4.5,111.385,9.88,106.005,16.515,106.005z M100.622,121.024c6.636,0,12.016,5.379,12.016,12.015v51.064
	c0,6.636-5.38,12.016-12.016,12.016c-6.635,0-12.015-5.38-12.015-12.016v-51.064C88.607,126.403,93.987,121.024,100.622,121.024z
	 M184.729,136.043c6.636,0,12.016,5.38,12.016,12.016v36.045c0,6.636-5.38,12.016-12.016,12.016c-6.635,0-12.015-5.38-12.015-12.016
	v-36.045C172.714,141.423,178.094,136.043,184.729,136.043z"/>
</svg>
