<?xml version="1.0" standalone="no"?><!DOCTYPE svg PUBLIC "-//W3C//DTD SVG 1.1//EN" "http://www.w3.org/Graphics/SVG/1.1/DTD/svg11.dtd"><svg t="1559105301146" class="icon" style="" viewBox="0 0 1024 1024" version="1.1" xmlns="http://www.w3.org/2000/svg" p-id="29221" xmlns:xlink="http://www.w3.org/1999/xlink" width="200" height="200"><defs><style type="text/css"></style></defs><path d="M129.511765 479.910017a383.928013 383.928013 0 0 1 351.67806-350.654252V32.761857a31.994001 31.994001 0 0 1 63.988002 0v96.621884a383.928013 383.928013 0 0 1 349.694432 351.550084h97.261764a31.994001 31.994001 0 1 1 0 63.988002h-97.453728A384.05599 384.05599 0 0 1 544.154019 894.552271v97.453728a31.994001 31.994001 0 1 1-63.988002 0V894.552271A383.992001 383.992001 0 0 1 129.511765 543.898019H31.994049a31.994001 31.994001 0 1 1 0-63.988002h97.645692z m64.307942 0h30.458289a31.994001 31.994001 0 1 1 0 63.988002h-30.458289A320.003999 320.003999 0 0 0 480.166017 830.244329v-29.626445a31.994001 31.994001 0 0 1 63.988002 0v29.626445a320.067987 320.067987 0 0 0 286.282322-285.322502h-30.394301a31.994001 31.994001 0 1 1 0-63.988002h30.586265a319.940011 319.940011 0 0 0-285.450478-287.30613v30.074361a31.994001 31.994001 0 1 1-63.988002 0v-30.266325A319.684059 319.684059 0 0 0 193.883695 479.910017zM448.172016 511.904018a63.988002 63.988002 0 1 1 127.976004 0 63.988002 63.988002 0 0 1-127.976004 0z" p-id="29222"></path></svg>