<?xml version="1.0" standalone="no"?><!DOCTYPE svg PUBLIC "-//W3C//DTD SVG 1.1//EN" "http://www.w3.org/Graphics/SVG/1.1/DTD/svg11.dtd"><svg t="1559193429582" class="icon" style="" viewBox="0 0 1075 1024" version="1.1" xmlns="http://www.w3.org/2000/svg" p-id="15261" xmlns:xlink="http://www.w3.org/1999/xlink" width="209.9609375" height="200"><defs><style type="text/css"></style></defs><path d="M997.921642 870.04234H628.76826a76.97883 76.97883 0 1 0 0 153.95766h369.153382a76.97883 76.97883 0 0 0 0-153.95766z" p-id="15262"></path><path d="M997.921642 685.465649a76.97883 76.97883 0 0 0 0-153.957661H385.972286V259.386745l98.110274 97.894647a75.469441 75.469441 0 0 0 106.735353-106.735353L363.978335 22.197072a75.253814 75.253814 0 0 0-106.735353 0L30.403404 249.467904a75.253814 75.253814 0 0 0 0 106.735353 75.253814 75.253814 0 0 0 107.813487 0L235.033403 259.386745v272.121243H76.97883a76.97883 76.97883 0 0 0 0 153.957661h158.054573v261.555521a75.469441 75.469441 0 1 0 150.938883 0V685.465649z" p-id="15263"></path></svg>