<?xml version="1.0" standalone="no"?><!DOCTYPE svg PUBLIC "-//W3C//DTD SVG 1.1//EN" "http://www.w3.org/Graphics/SVG/1.1/DTD/svg11.dtd"><svg t="1559789453030" class="icon" style="" viewBox="0 0 1024 1024" version="1.1" xmlns="http://www.w3.org/2000/svg" p-id="3561" xmlns:xlink="http://www.w3.org/1999/xlink" width="300" height="300"><defs><style type="text/css"></style></defs><path d="M814.848 516.48l47.744-176.085333C952.448 335.488 1024 261.717333 1024 170.666667a170.666667 170.666667 0 0 0-341.333333 0c0 67.370667 39.424 125.098667 96.128 152.832l-52.138667 192.128a255.018667 255.018667 0 0 0-107.392 44.245333L242.858667 183.509333C251.008 166.656 256 147.968 256 128a128.042667 128.042667 0 0 0-256 0 128 128 0 0 0 128 128c19.456 0 37.717333-4.693333 54.229333-12.458667l376.874667 376.874667a253.653333 253.653333 0 0 0-42.624 100.906667l-197.845333 48.469333C289.322667 718.037333 234.410667 682.666667 170.666667 682.666667a170.666667 170.666667 0 1 0 170.666666 170.666666c0-0.426667-0.128-0.853333-0.128-1.237333l174.421334-42.752a255.872 255.872 0 1 0 299.221333-292.864zM170.666667 938.666667a85.333333 85.333333 0 1 1 0-170.666667 85.333333 85.333333 0 0 1 0 170.666667zM853.333333 85.333333a85.333333 85.333333 0 1 1-0.042666 170.709334A85.333333 85.333333 0 0 1 853.333333 85.333333zM64 128a64 64 0 1 1 128 0 64 64 0 0 1-128 0z" fill="#dddddd" p-id="3562"></path></svg>